<?xml version="1.0" encoding="UTF-8" standalone="no"?>
<svg
   xmlns:dc="http://purl.org/dc/elements/1.1/"
   xmlns:cc="http://creativecommons.org/ns#"
   xmlns:rdf="http://www.w3.org/1999/02/22-rdf-syntax-ns#"
   xmlns:svg="http://www.w3.org/2000/svg"
   xmlns="http://www.w3.org/2000/svg"
   xmlns:sodipodi="http://sodipodi.sourceforge.net/DTD/sodipodi-0.dtd"
   xmlns:inkscape="http://www.inkscape.org/namespaces/inkscape"
   version="1.1"
   x="0px"
   y="0px"
   viewBox="0 0 69.420853 72.016937"
   xml:space="preserve"
   id="svg2"
   inkscape:version="0.91 r13725"
   sodipodi:docname="dna.svg"
   width="69.420853"
   height="72.016937"><metadata
     id="metadata22"><rdf:RDF><cc:Work
         rdf:about=""><dc:format>image/svg+xml</dc:format><dc:type
           rdf:resource="http://purl.org/dc/dcmitype/StillImage" /><dc:title></dc:title></cc:Work></rdf:RDF></metadata><defs
     id="defs20" /><sodipodi:namedview
     pagecolor="#ffffff"
     bordercolor="#666666"
     borderopacity="1"
     objecttolerance="10"
     gridtolerance="10"
     guidetolerance="10"
     inkscape:pageopacity="0"
     inkscape:pageshadow="2"
     inkscape:window-width="2488"
     inkscape:window-height="1311"
     id="namedview18"
     showgrid="false"
     fit-margin-top="0"
     fit-margin-left="0"
     fit-margin-right="0"
     fit-margin-bottom="0"
     inkscape:zoom="8.2989011"
     inkscape:cx="49.205711"
     inkscape:cy="63.42967"
     inkscape:window-x="0"
     inkscape:window-y="0"
     inkscape:window-maximized="1"
     inkscape:current-layer="g4" /><g
     id="g4"
     transform="translate(-11.355556,-10.783065)"><path
       d="m 36.3,46.5 7.6,7.7 c 0.3,0.3 0.8,0.5 1.2,0.5 0.4,0 0.9,-0.2 1.2,-0.5 0.7,-0.7 0.7,-1.7 0,-2.4 l -8.7,-8.9 c 0.4,-0.8 0.8,-1.5 1.3,-2.1 0.9,-1.1 2,-2 3.3,-2.7 l 8.4,8.4 c 0.3,0.3 0.8,0.5 1.2,0.5 0.4,0 0.9,-0.2 1.2,-0.5 0.7,-0.7 0.6,-1.7 0,-2.4 l -7.3,-7.3 c 1.8,-0.4 3.8,-0.6 6,-0.5 1.3,0 2.5,-1 2.6,-2.4 0.1,-1.4 -1,-2.5 -2.4,-2.6 -7.6,-0.3 -13.3,1.8 -16.9,6.4 -4.3,5.4 -5.3,13.7 -2.8,23.6 3.2,12.3 -3.1,16.7 -3.4,16.9 -1.1,0.7 -1.5,2.3 -0.7,3.4 0.5,0.7 1.3,1.2 2.1,1.2 0.5,0 0.9,-0.1 1.3,-0.4 C 31.9,82.1 41.2,76 37.1,60 35.7,54.9 35.5,50.2 36.3,46.5 Z"
       id="path6"
       inkscape:connector-curvature="0"
       style="fill:#ff9800;fill-opacity:1" /><path
       d="m 63.9,15.1 c 1,-0.9 1.1,-2.5 0.2,-3.5 -0.9,-1 -2.5,-1.1 -3.5,-0.2 -0.4,0.4 -9.6,9 -4.4,24.5 2.1,6.4 1.7,12.2 -1.4,16.3 -2.8,3.7 -7.6,5.7 -13.7,5.5 -1.4,0 -2.5,1 -2.6,2.4 0,1.4 1,2.5 2.4,2.6 0.3,0 0.7,0 1,0 7.3,0 13.2,-2.6 16.9,-7.5 4,-5.3 4.8,-13 2.1,-20.9 -4.1,-12.3 2.7,-18.9 3,-19.2 z"
       id="path8"
       inkscape:connector-curvature="0"
       style="fill:#ff9800;fill-opacity:1" /><path
       d="M 79.9,29.1 C 79,28.7 78,29 77.6,29.9 c 0,0 -0.7,1.3 -2.5,2.6 L 64.9,23.2 c -0.7,-0.6 -1.8,-0.6 -2.4,0.1 -0.6,0.7 -0.6,1.8 0.1,2.4 l 9.3,8.5 c -1.8,0.6 -4,1 -6.9,0.9 -0.9,0 -1.7,0.7 -1.7,1.6 0,0.9 0.7,1.7 1.6,1.7 0.3,0 0.7,0 1,0 11.1,0 14.6,-6.7 14.7,-7 0.4,-0.9 0.1,-1.9 -0.7,-2.3 z"
       id="path10"
       inkscape:connector-curvature="0"
       style="fill:#ff9800;fill-opacity:1" /><path
       d="m 28.9,72.1 c 0.4,0 0.9,-0.2 1.2,-0.5 0.6,-0.7 0.6,-1.7 0,-2.4 l -9.6,-9.3 c 1.9,-0.7 4.2,-1.1 7.2,-1.1 0.9,0 1.7,-0.8 1.7,-1.7 0,-0.9 -0.8,-1.7 -1.7,-1.7 -4.8,0 -8.3,1.1 -10.8,2.4 0,0 0,0 0,0 -3.6,1.9 -5.2,4.3 -5.3,4.5 -0.5,0.8 -0.2,1.8 0.6,2.3 0.3,0.2 0.6,0.2 0.9,0.2 0.6,0 1.1,-0.3 1.4,-0.8 0,0 0.8,-1.3 2.8,-2.6 l 10.5,10.1 c 0.3,0.4 0.7,0.6 1.1,0.6 z"
       id="path12"
       inkscape:connector-curvature="0"
       style="fill:#ff9800;fill-opacity:1" /></g></svg>